<mxfile host="app.diagrams.net" modified="2024-07-17T08:47:09.485Z" agent="Mozilla/5.0 (Windows NT 10.0; Win64; x64) AppleWebKit/537.36 (KHTML, like Gecko) Chrome/126.0.0.0 Safari/537.36" etag="2jrTCzMc-sLh5d8pwhaS" version="24.7.0" type="device">
  <diagram name="페이지-1" id="MJQwzZql0ZNCQBa9R32x">
    <mxGraphModel dx="1900" dy="1217" grid="0" gridSize="10" guides="0" tooltips="1" connect="1" arrows="1" fold="1" page="0" pageScale="1" pageWidth="827" pageHeight="1169" background="none" math="0" shadow="0">
      <root>
        <mxCell id="0" />
        <mxCell id="1" parent="0" />
        <mxCell id="L2mAWTLM_GyrjZLVTbEW-25" value="고객" style="ellipse;whiteSpace=wrap;html=1;" vertex="1" parent="1">
          <mxGeometry x="-183" y="-25" width="120" height="80" as="geometry" />
        </mxCell>
        <mxCell id="L2mAWTLM_GyrjZLVTbEW-26" value="상품" style="ellipse;whiteSpace=wrap;html=1;" vertex="1" parent="1">
          <mxGeometry x="260" y="-24" width="120" height="80" as="geometry" />
        </mxCell>
        <mxCell id="L2mAWTLM_GyrjZLVTbEW-27" value="주문" style="ellipse;whiteSpace=wrap;html=1;" vertex="1" parent="1">
          <mxGeometry x="39" y="196" width="120" height="80" as="geometry" />
        </mxCell>
        <mxCell id="L2mAWTLM_GyrjZLVTbEW-28" value="" style="endArrow=ERzeroToMany;html=1;rounded=0;fontSize=12;startSize=8;endSize=8;exitX=0.5;exitY=1;exitDx=0;exitDy=0;entryX=0;entryY=0.5;entryDx=0;entryDy=0;edgeStyle=orthogonalEdgeStyle;endFill=0;" edge="1" parent="1" source="L2mAWTLM_GyrjZLVTbEW-25" target="L2mAWTLM_GyrjZLVTbEW-27">
          <mxGeometry width="50" height="50" relative="1" as="geometry">
            <mxPoint x="100" y="142" as="sourcePoint" />
            <mxPoint x="150" y="92" as="targetPoint" />
          </mxGeometry>
        </mxCell>
        <mxCell id="L2mAWTLM_GyrjZLVTbEW-29" value="" style="endArrow=ERzeroToMany;html=1;rounded=0;fontSize=12;startSize=8;endSize=8;entryX=1;entryY=0.5;entryDx=0;entryDy=0;exitX=0.5;exitY=1;exitDx=0;exitDy=0;edgeStyle=orthogonalEdgeStyle;endFill=0;" edge="1" parent="1" source="L2mAWTLM_GyrjZLVTbEW-26" target="L2mAWTLM_GyrjZLVTbEW-27">
          <mxGeometry width="50" height="50" relative="1" as="geometry">
            <mxPoint x="100" y="142" as="sourcePoint" />
            <mxPoint x="150" y="92" as="targetPoint" />
          </mxGeometry>
        </mxCell>
        <mxCell id="L2mAWTLM_GyrjZLVTbEW-30" value="고객 아이디" style="ellipse;whiteSpace=wrap;html=1;" vertex="1" parent="1">
          <mxGeometry x="-281" y="-78" width="82" height="77" as="geometry" />
        </mxCell>
        <mxCell id="L2mAWTLM_GyrjZLVTbEW-31" value="전화번호" style="ellipse;whiteSpace=wrap;html=1;aspect=fixed;" vertex="1" parent="1">
          <mxGeometry x="-193" y="-127" width="80" height="80" as="geometry" />
        </mxCell>
        <mxCell id="L2mAWTLM_GyrjZLVTbEW-32" value="주소" style="ellipse;whiteSpace=wrap;html=1;aspect=fixed;fillColor=#ffe6cc;strokeColor=#d79b00;" vertex="1" parent="1">
          <mxGeometry x="-91" y="-129" width="80" height="80" as="geometry" />
        </mxCell>
        <mxCell id="L2mAWTLM_GyrjZLVTbEW-33" value="상품아이디" style="ellipse;whiteSpace=wrap;html=1;aspect=fixed;fillColor=#f8cecc;strokeColor=#b85450;" vertex="1" parent="1">
          <mxGeometry x="264" y="-138" width="80" height="80" as="geometry" />
        </mxCell>
        <mxCell id="L2mAWTLM_GyrjZLVTbEW-34" value="상품종류" style="ellipse;whiteSpace=wrap;html=1;aspect=fixed;fillColor=#e1d5e7;strokeColor=#9673a6;" vertex="1" parent="1">
          <mxGeometry x="579" y="316" width="80" height="80" as="geometry" />
        </mxCell>
        <mxCell id="L2mAWTLM_GyrjZLVTbEW-35" value="상품명" style="ellipse;whiteSpace=wrap;html=1;aspect=fixed;fillColor=#e1d5e7;strokeColor=#9673a6;" vertex="1" parent="1">
          <mxGeometry x="417" y="439" width="80" height="80" as="geometry" />
        </mxCell>
        <mxCell id="L2mAWTLM_GyrjZLVTbEW-36" value="금액" style="ellipse;whiteSpace=wrap;html=1;aspect=fixed;fillColor=#e1d5e7;strokeColor=#9673a6;" vertex="1" parent="1">
          <mxGeometry x="355" y="345" width="80" height="80" as="geometry" />
        </mxCell>
        <mxCell id="L2mAWTLM_GyrjZLVTbEW-37" value="수량" style="ellipse;whiteSpace=wrap;html=1;aspect=fixed;fillColor=#dae8fc;strokeColor=#6c8ebf;" vertex="1" parent="1">
          <mxGeometry x="123" y="398" width="80" height="80" as="geometry" />
        </mxCell>
        <mxCell id="L2mAWTLM_GyrjZLVTbEW-38" value="주문날짜" style="ellipse;whiteSpace=wrap;html=1;aspect=fixed;fillColor=#dae8fc;strokeColor=#6c8ebf;" vertex="1" parent="1">
          <mxGeometry x="102" y="589" width="80" height="80" as="geometry" />
        </mxCell>
        <mxCell id="L2mAWTLM_GyrjZLVTbEW-39" value="주문 상태" style="ellipse;whiteSpace=wrap;html=1;aspect=fixed;fillColor=#dae8fc;strokeColor=#6c8ebf;" vertex="1" parent="1">
          <mxGeometry x="171" y="505" width="80" height="80" as="geometry" />
        </mxCell>
        <mxCell id="L2mAWTLM_GyrjZLVTbEW-40" value="상품수량" style="ellipse;whiteSpace=wrap;html=1;aspect=fixed;fillColor=#e1d5e7;strokeColor=#9673a6;" vertex="1" parent="1">
          <mxGeometry x="557" y="434" width="80" height="80" as="geometry" />
        </mxCell>
        <mxCell id="L2mAWTLM_GyrjZLVTbEW-42" value="라이더" style="ellipse;whiteSpace=wrap;html=1;" vertex="1" parent="1">
          <mxGeometry x="37" y="487" width="120" height="80" as="geometry" />
        </mxCell>
        <mxCell id="L2mAWTLM_GyrjZLVTbEW-43" value="가게" style="ellipse;whiteSpace=wrap;html=1;" vertex="1" parent="1">
          <mxGeometry x="443" y="344" width="120" height="80" as="geometry" />
        </mxCell>
        <mxCell id="L2mAWTLM_GyrjZLVTbEW-44" value="" style="endArrow=ERzeroToMany;html=1;rounded=0;fontSize=12;startSize=8;endSize=8;exitX=0.5;exitY=0;exitDx=0;exitDy=0;entryX=1;entryY=0.5;entryDx=0;entryDy=0;edgeStyle=orthogonalEdgeStyle;endFill=0;" edge="1" parent="1" source="L2mAWTLM_GyrjZLVTbEW-43" target="L2mAWTLM_GyrjZLVTbEW-26">
          <mxGeometry width="50" height="50" relative="1" as="geometry">
            <mxPoint x="103" y="220" as="sourcePoint" />
            <mxPoint x="153" y="170" as="targetPoint" />
          </mxGeometry>
        </mxCell>
        <mxCell id="L2mAWTLM_GyrjZLVTbEW-46" value="" style="endArrow=ERzeroToMany;html=1;rounded=0;fontSize=12;startSize=8;endSize=8;curved=1;entryX=0.5;entryY=0;entryDx=0;entryDy=0;exitX=0.5;exitY=1;exitDx=0;exitDy=0;endFill=0;" edge="1" parent="1" source="L2mAWTLM_GyrjZLVTbEW-27" target="L2mAWTLM_GyrjZLVTbEW-42">
          <mxGeometry width="50" height="50" relative="1" as="geometry">
            <mxPoint x="-18" y="310" as="sourcePoint" />
            <mxPoint x="32" y="260" as="targetPoint" />
          </mxGeometry>
        </mxCell>
        <mxCell id="L2mAWTLM_GyrjZLVTbEW-47" value="고객주소" style="ellipse;whiteSpace=wrap;html=1;aspect=fixed;fillColor=#ffe6cc;strokeColor=#d79b00;" vertex="1" parent="1">
          <mxGeometry x="-52" y="452" width="80" height="80" as="geometry" />
        </mxCell>
        <mxCell id="L2mAWTLM_GyrjZLVTbEW-50" value="수량" style="ellipse;whiteSpace=wrap;html=1;aspect=fixed;fillColor=#dae8fc;strokeColor=#6c8ebf;" vertex="1" parent="1">
          <mxGeometry x="153" y="133" width="80" height="80" as="geometry" />
        </mxCell>
        <mxCell id="L2mAWTLM_GyrjZLVTbEW-51" value="주문날짜" style="ellipse;whiteSpace=wrap;html=1;aspect=fixed;fillColor=#dae8fc;strokeColor=#6c8ebf;" vertex="1" parent="1">
          <mxGeometry x="-25" y="144" width="80" height="80" as="geometry" />
        </mxCell>
        <mxCell id="L2mAWTLM_GyrjZLVTbEW-52" value="주문 상태" style="ellipse;whiteSpace=wrap;html=1;aspect=fixed;fillColor=#dae8fc;strokeColor=#6c8ebf;" vertex="1" parent="1">
          <mxGeometry x="65" y="106" width="80" height="80" as="geometry" />
        </mxCell>
        <mxCell id="L2mAWTLM_GyrjZLVTbEW-53" value="상품종류" style="ellipse;whiteSpace=wrap;html=1;aspect=fixed;fillColor=#e1d5e7;strokeColor=#9673a6;" vertex="1" parent="1">
          <mxGeometry x="388" y="-75" width="80" height="80" as="geometry" />
        </mxCell>
        <mxCell id="L2mAWTLM_GyrjZLVTbEW-54" value="상품명" style="ellipse;whiteSpace=wrap;html=1;aspect=fixed;fillColor=#e1d5e7;strokeColor=#9673a6;" vertex="1" parent="1">
          <mxGeometry x="164" y="-141" width="80" height="80" as="geometry" />
        </mxCell>
        <mxCell id="L2mAWTLM_GyrjZLVTbEW-55" value="금액" style="ellipse;whiteSpace=wrap;html=1;aspect=fixed;fillColor=#e1d5e7;strokeColor=#9673a6;" vertex="1" parent="1">
          <mxGeometry x="164" y="-46" width="80" height="80" as="geometry" />
        </mxCell>
        <mxCell id="L2mAWTLM_GyrjZLVTbEW-56" value="상품수량" style="ellipse;whiteSpace=wrap;html=1;aspect=fixed;fillColor=#e1d5e7;strokeColor=#9673a6;" vertex="1" parent="1">
          <mxGeometry x="366" y="43" width="80" height="80" as="geometry" />
        </mxCell>
        <mxCell id="L2mAWTLM_GyrjZLVTbEW-57" value="상품아이디" style="ellipse;whiteSpace=wrap;html=1;aspect=fixed;fillColor=#f8cecc;strokeColor=#b85450;" vertex="1" parent="1">
          <mxGeometry x="167" y="250" width="80" height="80" as="geometry" />
        </mxCell>
        <mxCell id="L2mAWTLM_GyrjZLVTbEW-58" value="상품아이디" style="ellipse;whiteSpace=wrap;html=1;aspect=fixed;fillColor=#f8cecc;strokeColor=#b85450;" vertex="1" parent="1">
          <mxGeometry x="-12" y="577" width="80" height="80" as="geometry" />
        </mxCell>
        <mxCell id="L2mAWTLM_GyrjZLVTbEW-59" value="고객 주소" style="ellipse;whiteSpace=wrap;html=1;aspect=fixed;fillColor=#ffe6cc;strokeColor=#d79b00;" vertex="1" parent="1">
          <mxGeometry x="-33" y="257" width="80" height="80" as="geometry" />
        </mxCell>
      </root>
    </mxGraphModel>
  </diagram>
</mxfile>
